# xmcd
#
# Track frame offsets:
#	150
#	11882
#	21175
#	34575
#	48192
#	61610
#	76490
#	88447
#	99637
#	110065
#
# Disc length: 1634 seconds
#
# Revision: 2
# Processed by: cddbd v1.5.1PL0 Copyright (c) Steve Scherf et al.
# Submitted via: dBpowerAMP V4.0
#
DISCID=7b06600a
DTITLE=Johnny Paycheck - Golden Classics
DYEAR=1987
DGENRE=country
TTITLE0=Take This Job and Shove It
TTITLE1=Mr. Lovemaker
TTITLE2=Don't Take Her She's All I Got
TTITLE3=I'm The Only Hell (Mama Ever Raised)
TTITLE4=Song And Dance Man
TTITLE5=Someone To Give My Love To
TTITLE6=Something About You I Love
TTITLE7=For A Minute There
TTITLE8=A-11
TTITLE9=Heaven's Almost As Big As Texas
EXTD=added year
EXTT0=
EXTT1=
EXTT2=
EXTT3=
EXTT4=
EXTT5=
EXTT6=
EXTT7=
EXTT8=
EXTT9=
PLAYORDER=
